<svg xmlns="http://www.w3.org/2000/svg" xmlns:xlink="http://www.w3.org/1999/xlink" width="288" zoomAndPan="magnify" viewBox="0 0 216 215.999996" height="288" preserveAspectRatio="xMidYMid meet" version="1.0"><defs><clipPath id="id1"><path d="M 21.601562 21.601562 L 191.101562 21.601562 L 191.101562 191.101562 L 21.601562 191.101562 Z M 21.601562 21.601562 " clip-rule="nonzero"/></clipPath></defs><rect x="-21.6" width="259.2" fill="#ffffff" y="-21.6" height="259.199995" fill-opacity="1"/><rect x="-21.6" width="259.2" fill="#ffffff" y="-21.6" height="259.199995" fill-opacity="1"/><rect x="-21.6" width="259.2" fill="#ffffff" y="-21.6" height="259.199995" fill-opacity="1"/><g clip-path="url(#id1)"><path fill="#f24405" d="M 191.101562 106.351562 C 191.101562 153.15625 153.15625 191.101562 106.351562 191.101562 C 59.542969 191.101562 21.601562 153.15625 21.601562 106.351562 C 21.601562 59.542969 59.542969 21.601562 106.351562 21.601562 C 153.15625 21.601562 191.101562 59.542969 191.101562 106.351562 Z M 191.101562 106.351562 " fill-opacity="1" fill-rule="nonzero"/></g><path fill="#2c3d73" d="M 69.558594 52.058594 L 121.144531 52.058594 C 125.550781 52.058594 129.097656 55.605469 129.097656 60.007812 L 129.097656 152.691406 C 129.097656 157.097656 125.550781 160.644531 121.144531 160.644531 L 69.558594 160.644531 C 65.15625 160.644531 61.609375 157.097656 61.609375 152.691406 L 61.609375 60.007812 C 61.609375 55.605469 65.15625 52.058594 69.558594 52.058594 Z M 69.558594 52.058594 " fill-opacity="1" fill-rule="nonzero"/><path fill="#f0efec" d="M 124.714844 61.167969 L 124.714844 151.53125 C 124.714844 152.769531 124.226562 153.953125 123.351562 154.828125 C 122.480469 155.703125 121.292969 156.191406 120.054688 156.1875 L 70.628906 156.1875 C 69.394531 156.1875 68.214844 155.699219 67.34375 154.824219 C 66.472656 153.949219 65.988281 152.765625 65.992188 151.53125 L 65.992188 61.167969 C 65.992188 59.933594 66.484375 58.746094 67.359375 57.875 C 68.230469 57 69.414062 56.511719 70.648438 56.511719 L 80.648438 56.511719 C 81.429688 56.511719 82.140625 56.960938 82.476562 57.664062 L 83.871094 60.578125 C 84.203125 61.28125 84.914062 61.730469 85.695312 61.730469 L 104.988281 61.730469 C 105.769531 61.730469 106.480469 61.28125 106.816406 60.578125 L 108.207031 57.664062 C 108.542969 56.960938 109.253906 56.511719 110.035156 56.511719 L 120.054688 56.511719 C 122.628906 56.511719 124.714844 58.59375 124.714844 61.167969 Z M 124.714844 61.167969 " fill-opacity="1" fill-rule="nonzero"/><path fill="#2c3d73" d="M 82.566406 148.832031 L 108.140625 148.832031 C 109.015625 148.832031 109.722656 149.535156 109.722656 150.410156 C 109.722656 151.289062 109.015625 151.992188 108.140625 151.992188 L 82.566406 151.992188 C 81.691406 151.992188 80.984375 151.289062 80.984375 150.410156 C 80.984375 149.535156 81.691406 148.832031 82.566406 148.832031 Z M 82.566406 148.832031 " fill-opacity="1" fill-rule="nonzero"/><path fill="#f2836b" d="M 151.089844 80.273438 L 151.089844 104.773438 C 151.089844 107.699219 148.71875 110.070312 145.792969 110.070312 L 119.179688 110.070312 L 107.921875 122.570312 L 107.921875 110.070312 L 103.632812 110.070312 C 100.707031 110.066406 98.335938 107.695312 98.335938 104.773438 L 98.335938 80.273438 C 98.335938 77.351562 100.707031 74.980469 103.632812 74.976562 L 145.792969 74.976562 C 148.71875 74.976562 151.089844 77.351562 151.089844 80.273438 Z M 151.089844 80.273438 " fill-opacity="1" fill-rule="nonzero"/><path fill="#2c3d73" d="M 111.339844 99.304688 C 109.851562 99.417969 108.375 98.976562 107.195312 98.058594 C 106.285156 97.246094 105.761719 96.085938 105.75 94.867188 L 107.421875 94.867188 C 107.457031 95.746094 107.910156 96.554688 108.644531 97.039062 C 109.429688 97.523438 110.34375 97.765625 111.269531 97.738281 C 112.09375 97.777344 112.914062 97.570312 113.617188 97.140625 C 114.179688 96.792969 114.519531 96.171875 114.507812 95.511719 C 114.542969 94.847656 114.175781 94.230469 113.578125 93.9375 C 112.566406 93.480469 111.503906 93.15625 110.410156 92.964844 C 109.242188 92.789062 108.132812 92.335938 107.179688 91.640625 C 106.527344 91.074219 106.167969 90.242188 106.199219 89.378906 C 106.183594 88.355469 106.65625 87.382812 107.476562 86.769531 C 108.453125 86.046875 109.648438 85.6875 110.863281 85.746094 C 112.136719 85.6875 113.390625 86.046875 114.4375 86.777344 C 115.347656 87.46875 115.882812 88.546875 115.878906 89.691406 L 114.195312 89.691406 C 114.019531 88.101562 112.933594 87.304688 110.9375 87.304688 C 110.148438 87.257812 109.367188 87.449219 108.6875 87.851562 C 108.1875 88.164062 107.882812 88.710938 107.894531 89.300781 C 107.867188 89.796875 108.109375 90.269531 108.53125 90.535156 C 109.28125 90.921875 110.085938 91.191406 110.914062 91.332031 C 111.859375 91.523438 112.785156 91.777344 113.695312 92.089844 C 114.371094 92.332031 114.976562 92.730469 115.460938 93.257812 C 115.96875 93.839844 116.230469 94.601562 116.195312 95.375 C 116.207031 96.46875 115.710938 97.511719 114.84375 98.183594 C 113.847656 98.964844 112.605469 99.359375 111.339844 99.304688 Z M 111.339844 99.304688 " fill-opacity="1" fill-rule="nonzero"/><path fill="#2c3d73" d="M 130.9375 99.082031 L 129.292969 99.082031 L 129.292969 87.925781 L 125.550781 99.082031 L 123.996094 99.082031 L 120.253906 87.925781 L 120.253906 99.082031 L 118.613281 99.082031 L 118.613281 85.96875 L 121.214844 85.96875 L 124.769531 96.902344 L 128.34375 85.96875 L 130.949219 85.96875 Z M 130.9375 99.082031 " fill-opacity="1" fill-rule="nonzero"/><path fill="#2c3d73" d="M 138.820312 99.304688 C 137.332031 99.417969 135.855469 98.976562 134.675781 98.058594 C 133.765625 97.246094 133.242188 96.085938 133.230469 94.867188 L 134.902344 94.867188 C 134.9375 95.746094 135.390625 96.554688 136.125 97.035156 C 136.914062 97.523438 137.824219 97.765625 138.75 97.738281 C 139.574219 97.777344 140.394531 97.566406 141.097656 97.136719 C 141.664062 96.789062 142.003906 96.171875 141.988281 95.507812 C 142.023438 94.847656 141.65625 94.226562 141.0625 93.933594 C 140.046875 93.480469 138.984375 93.15625 137.890625 92.964844 C 136.722656 92.789062 135.617188 92.335938 134.660156 91.640625 C 134.007812 91.074219 133.648438 90.242188 133.683594 89.378906 C 133.664062 88.351562 134.136719 87.382812 134.957031 86.765625 C 135.933594 86.046875 137.132812 85.683594 138.34375 85.746094 C 139.617188 85.6875 140.871094 86.046875 141.917969 86.773438 C 142.828125 87.464844 143.363281 88.546875 143.359375 89.6875 L 141.671875 89.6875 C 141.496094 88.097656 140.410156 87.304688 138.414062 87.304688 C 137.628906 87.257812 136.84375 87.445312 136.164062 87.851562 C 135.664062 88.160156 135.363281 88.710938 135.371094 89.300781 C 135.34375 89.796875 135.589844 90.269531 136.011719 90.535156 C 136.757812 90.917969 137.5625 91.1875 138.394531 91.328125 C 139.335938 91.523438 140.265625 91.773438 141.175781 92.089844 C 141.847656 92.332031 142.453125 92.730469 142.9375 93.253906 C 143.445312 93.839844 143.710938 94.597656 143.671875 95.375 C 143.683594 96.46875 143.1875 97.507812 142.324219 98.183594 C 141.328125 98.960938 140.085938 99.359375 138.820312 99.304688 Z M 138.820312 99.304688 " fill-opacity="1" fill-rule="nonzero"/></svg>